<?xml version="1.0" ?><svg id="Layer_1" style="enable-background:new 0 0 100 100;" version="1.1" viewBox="0 0 100 100" xml:space="preserve" xmlns="http://www.w3.org/2000/svg" xmlns:xlink="http://www.w3.org/1999/xlink" fill="rgb(256, 256, 256)"><style type="text/css">
	.st0{fill:none;stroke:#000000;stroke-width:2;stroke-miterlimit:10;}
	.st1{fill:none;stroke:#000000;stroke-miterlimit:10;}
</style><g><g><path d="M50,5C25.1,5,5,25.1,5,50c0,0.4,0,0.7,0,1.1c0.2-0.7,2-1.2,5-1.7c0.3-20.9,16.7-38.9,37.3-40.3C48.8,9,50,10.2,50,11.6v0    c0,1.3-1,2.4-2.3,2.5C29.5,15.3,15.1,30.4,15,48.8c6.5-0.6,15.6-1,25.3-1.2c1.1-4.4,5-7.6,9.7-7.6c4.7,0,8.6,3.2,9.7,7.6    C78.2,47.9,94.5,49,95,51.1c0-0.4,0-0.7,0-1.1C95,25.1,74.9,5,50,5z"/><path d="M50,60c-4.6,0-8.5-3.2-9.7-7.4c-17.2,0.3-32.5,1.3-35,3.1C8.2,77.8,27.1,95,50,95c22.9,0,41.8-17.1,44.6-39.3    c-2.5-1.8-17.7-2.8-35-3.1C58.5,56.9,54.6,60,50,60z"/></g><circle cx="50" cy="50" r="7"/></g></svg>