<?xml version="1.0" ?><!DOCTYPE svg  PUBLIC '-//W3C//DTD SVG 1.1//EN'  'http://www.w3.org/Graphics/SVG/1.1/DTD/svg11.dtd'><svg enable-background="new 0 0 223.81 223.81" height="223.81px" id="Livello_1" version="1.1" viewBox="0 0 223.81 223.81" width="223.81px" xml:space="preserve" xmlns="http://www.w3.org/2000/svg" xmlns:xlink="http://www.w3.org/1999/xlink"><g><circle cx="111.905" cy="111.853" fill="#627077" r="111.321"/><path d="M222.781,121.871l-56.77-64.702L96.73,74.577l3.75,38.549l-9.75,7.75l-7.5,13.25   L53.064,160.21l55.425,62.964c21.742,1.112,41.047-5.788,51.151-10.487C192.397,197.453,218.371,164.917,222.781,121.871z" fill="#010202" opacity="0.15"/><g><path d="M111.838,188.357c42.289,0,76.571-34.282,76.571-76.571H35.268    C35.268,154.075,69.55,188.357,111.838,188.357z" fill="#DDDDDD"/><path d="M111.838,35.283c-42.289,0-76.571,34.282-76.571,76.571h153.141    C188.409,69.565,154.127,35.283,111.838,35.283z" fill="#B72F2E"/><path d="M188.472,111.853c-0.005-4.998-0.494-8.221-0.494-8.221h-83.508v0.067H35.722c0,0-0.454,3.429-0.45,8.088    c0.004,4.997,0.45,8.221,0.45,8.221h76.116v-0.067h76.139C187.977,119.941,188.476,116.512,188.472,111.853z" fill="#383838"/><circle cx="111.838" cy="111.787" fill="#383838" r="25.417"/><circle cx="111.838" cy="111.853" fill="#DDDDDD" r="17.5"/></g><path d="M35.268,111.853c0,42.289,34.282,76.571,76.571,76.571V35.283   C69.55,35.283,35.268,69.565,35.268,111.853z" fill="#010202" opacity="0.15"/></g></svg>